<?xml version="1.0" standalone="no"?>
<!DOCTYPE svg PUBLIC "-//W3C//DTD SVG 20010904//EN"
 "http://www.w3.org/TR/2001/REC-SVG-20010904/DTD/svg10.dtd">
<svg version="1.0" xmlns="http://www.w3.org/2000/svg"
 width="700.000000pt" height="700.000000pt" viewBox="0 0 700.000000 700.000000"
 preserveAspectRatio="xMidYMid meet">
<metadata>
Created by potrace 1.11, written by Peter Selinger 2001-2013
</metadata>
<g transform="translate(0.000000,700.000000) scale(0.100000,-0.100000)"
fill="#000000" stroke="none">
<path d="M3329 6537 c-91 -73 -183 -145 -204 -162 -21 -16 -61 -48 -89 -71
-28 -23 -141 -112 -251 -199 -187 -149 -385 -305 -655 -520 -63 -50 -205 -163
-315 -250 -110 -87 -263 -209 -340 -270 -77 -61 -228 -180 -335 -265 -107 -85
-285 -227 -396 -315 -111 -88 -321 -254 -467 -370 -146 -115 -266 -213 -267
-216 0 -3 270 -5 600 -5 593 1 600 1 601 -19 1 -11 2 -285 2 -609 2 -556 3
-589 20 -600 10 -6 75 -51 145 -100 70 -49 175 -122 233 -162 l106 -73 1 767
c0 422 1 774 1 782 1 13 205 15 1777 15 1287 -1 1777 -4 1782 -12 4 -6 7 -205
6 -442 0 -248 4 -431 9 -431 8 0 358 240 447 308 l45 34 1 251 c1 139 2 261 3
272 1 20 8 20 588 19 324 -1 591 1 596 3 4 2 -12 20 -35 40 -194 159 -536 439
-568 463 -18 14 -81 63 -139 110 -59 47 -180 144 -271 215 -90 72 -277 219
-415 328 -137 109 -265 210 -284 225 -19 15 -127 100 -240 190 -113 90 -221
175 -240 190 -19 15 -114 90 -211 167 -96 77 -193 153 -215 169 -22 17 -42 33
-45 36 -3 3 -102 82 -220 175 -118 94 -298 236 -400 317 -102 82 -187 148
-190 148 -3 -1 -80 -60 -171 -133z m258 -579 c110 -86 772 -607 792 -624 9 -7
66 -52 126 -100 61 -47 124 -96 140 -109 17 -13 77 -61 135 -106 58 -46 107
-85 110 -88 3 -4 23 -19 45 -36 22 -16 42 -32 45 -35 3 -3 23 -19 45 -35 22
-17 42 -32 45 -36 5 -5 139 -110 363 -284 64 -49 115 -94 113 -99 -2 -9 -4091
-14 -4101 -5 -2 3 35 35 83 71 48 37 101 78 117 92 17 13 102 81 190 150 88
70 167 132 175 139 8 7 33 26 55 42 22 16 42 32 45 36 5 5 293 232 625 493 77
60 183 143 235 184 52 42 136 108 185 147 50 39 110 87 135 106 25 18 54 41
65 51 105 87 132 107 141 107 6 1 47 -27 91 -61z"/>
<path d="M5735 2882 c-66 -46 -328 -230 -510 -358 -248 -175 -245 -173 -560
-394 -159 -112 -463 -326 -675 -475 -593 -417 -954 -671 -967 -679 -12 -6 -62
25 -188 116 -33 24 -207 148 -265 188 -56 39 -840 592 -860 607 -172 125 -484
342 -487 339 -4 -4 -6 -289 -4 -543 l1 -72 146 -103 c80 -57 156 -110 167
-118 273 -190 775 -541 782 -547 6 -4 23 -17 40 -27 16 -11 34 -23 40 -28 27
-25 610 -428 618 -428 4 0 63 39 130 86 67 47 298 209 512 360 215 151 413
290 440 310 28 19 185 130 350 246 165 116 381 268 480 338 99 70 203 142 230
162 28 19 179 126 338 237 l287 202 0 305 c0 167 -1 304 -2 304 -2 0 -21 -13
-43 -28z"/>
</g>
</svg>
