<?xml version="1.0" encoding="utf-8"?>
<!-- Generator: Adobe Illustrator 23.0.1, SVG Export Plug-In . SVG Version: 6.00 Build 0)  -->
<svg version="1.1" id="Layer_1" xmlns="http://www.w3.org/2000/svg" xmlns:xlink="http://www.w3.org/1999/xlink" x="0px" y="0px"
	 viewBox="0 0 512 512" style="enable-background:new 0 0 512 512;" xml:space="preserve">
<path d="M122,368H38c-16.6,0-30-13.4-30-30V174c0-16.6,13.4-30,30-30h84c16.6,0,30,13.4,30,30v164C152,354.6,138.6,368,122,368z"/>
<path d="M298,368h-84c-16.6,0-30-13.4-30-30V174c0-16.6,13.4-30,30-30h84c16.6,0,30,13.4,30,30v164C328,354.6,314.6,368,298,368z"/>
<path d="M474,368h-84c-16.6,0-30-13.4-30-30V174c0-16.6,13.4-30,30-30h84c16.6,0,30,13.4,30,30v164C504,354.6,490.6,368,474,368z"/>
</svg>
